<svg width="26" height="26" viewBox="0 0 26 26" fill="none" xmlns="http://www.w3.org/2000/svg">
<path d="M0.764706 10.281C0.764706 12.2036 0.764706 13.1649 1.36198 13.7622C1.95925 14.3595 2.92055 14.3595 4.84314 14.3595H6.09231C6.80167 14.3595 7.15635 14.3595 7.42337 14.5519C7.6904 14.7444 7.80256 15.0809 8.02688 15.7538L8.45678 17.0435C8.6811 17.7165 8.79326 18.053 9.06029 18.2454C9.32731 18.4379 9.68199 18.4379 10.3914 18.4379H15.6086C16.318 18.4379 16.6727 18.4379 16.9397 18.2454C17.2067 18.053 17.3189 17.7165 17.5432 17.0435L17.9731 15.7538C18.1974 15.0809 18.3096 14.7444 18.5766 14.5519C18.8436 14.3595 19.1983 14.3595 19.9077 14.3595H21.1569C23.0795 14.3595 24.0408 14.3595 24.638 13.7622C25.2353 13.1649 25.2353 12.2036 25.2353 10.281M4.84314 25.2353H21.1569C23.0795 25.2353 24.0408 25.2353 24.638 24.638C25.2353 24.0408 25.2353 23.0795 25.2353 21.1569V4.84314C25.2353 2.92055 25.2353 1.95925 24.638 1.36198C24.0408 0.764706 23.0795 0.764706 21.1569 0.764706H4.84314C2.92055 0.764706 1.95925 0.764706 1.36198 1.36198C0.764706 1.95925 0.764706 2.92055 0.764706 4.84314V21.1569C0.764706 23.0795 0.764706 24.0408 1.36198 24.638C1.95925 25.2353 2.92055 25.2353 4.84314 25.2353Z" stroke="currentColor" stroke-width="1.5"/>
</svg>
