<svg width="23" height="26" viewBox="0 0 23 26" fill="none" xmlns="http://www.w3.org/2000/svg">
<path d="M6.12774 6.12774L11.5 6.12774M6.12774 16.8723H10.1569M6.12774 11.5L14.1861 11.5M19.5584 11.5V6.79928C19.5584 3.9502 19.5584 2.52566 18.6733 1.64057C17.7882 0.755475 16.3637 0.755475 13.5146 0.755475H6.79927C3.9502 0.755475 2.52566 0.755475 1.64057 1.64057C0.755475 2.52566 0.755475 3.9502 0.755475 6.79928V18.8869C0.755475 21.736 0.755475 23.1605 1.64057 24.0456C2.52566 24.9307 3.9502 24.9307 6.79928 24.9307H10.1569M22.2445 24.9307L20.2299 22.9161M20.9015 20.2299C20.9015 22.0843 19.3982 23.5876 17.5438 23.5876C15.6894 23.5876 14.1861 22.0843 14.1861 20.2299C14.1861 18.3756 15.6894 16.8723 17.5438 16.8723C19.3982 16.8723 20.9015 18.3756 20.9015 20.2299Z" stroke="currentColor" stroke-width="1.5" stroke-linecap="round"/>
</svg>
