<svg width="24" height="24" viewBox="0 0 24 24" fill="none" xmlns="http://www.w3.org/2000/svg">
<path d="M6.42521 11.2356L7.17062 11.3185V11.3185L6.42521 11.2356ZM6.41876 11.2933L7.16387 11.3788L6.41876 11.2933ZM5.31582 14.5222L5.95894 14.9081V14.9081L5.31582 14.5222ZM5.34561 14.4725L4.70111 14.0889L5.34561 14.4725ZM18.0331 11.2356L18.7785 11.1528V11.1528L18.0331 11.2356ZM18.0396 11.2933L17.2945 11.3788L18.0396 11.2933ZM19.1425 14.5222L19.7856 14.1364V14.1364L19.1425 14.5222ZM19.1127 14.4725L19.7572 14.0889L19.1127 14.4725ZM4.35351 17.7668L4.8349 17.1917H4.8349L4.35351 17.7668ZM4.73779 15.4856L4.09467 15.0998H4.09467L4.73779 15.4856ZM4.00758 17.1559L3.26674 17.2727L4.00758 17.1559ZM20.1048 17.7668L19.6234 17.1917V17.1917L20.1048 17.7668ZM19.7205 15.4856L19.0774 15.8715V15.8715L19.7205 15.4856ZM20.4508 17.1559L21.1916 17.2727L20.4508 17.1559ZM17.7813 8.96942L17.0359 9.05224V9.05224L17.7813 8.96942ZM10.0624 18.238C9.96964 17.8343 9.56721 17.5822 9.16351 17.6749C8.75981 17.7676 8.5077 18.17 8.60042 18.5737L9.33139 18.4059L10.0624 18.238ZM15.8579 18.5737C15.9506 18.17 15.6985 17.7676 15.2948 17.6749C14.8911 17.5822 14.4887 17.8343 14.396 18.238L15.1269 18.4059L15.8579 18.5737ZM18.2969 18V17.25H6.1614V18V18.75H18.2969V18ZM17.7813 8.96942L17.0359 9.05224L17.2877 11.3185L18.0331 11.2356L18.7785 11.1528L18.5267 8.88659L17.7813 8.96942ZM6.42521 11.2356L7.17062 11.3185L7.42242 9.05224L6.67701 8.96942L5.9316 8.88659L5.6798 11.1528L6.42521 11.2356ZM4.73779 15.4856L5.38091 15.8715L5.95894 14.9081L5.31582 14.5222L4.6727 14.1364L4.09467 15.0998L4.73779 15.4856ZM19.1425 14.5222L18.4994 14.9081L19.0774 15.8715L19.7205 15.4856L20.3637 15.0998L19.7856 14.1364L19.1425 14.5222ZM6.42521 11.2356L5.6798 11.1528C5.67653 11.1822 5.6751 11.1951 5.67364 11.2078L6.41876 11.2933L7.16387 11.3788C7.16569 11.3628 7.16747 11.3468 7.17062 11.3185L6.42521 11.2356ZM5.31582 14.5222L5.95894 14.9081C5.97363 14.8836 5.98191 14.8698 5.99012 14.8561L5.34561 14.4725L4.70111 14.0889C4.6946 14.0999 4.68793 14.111 4.6727 14.1364L5.31582 14.5222ZM6.41876 11.2933L5.67364 11.2078C5.55679 12.2261 5.22532 13.2081 4.70111 14.0889L5.34561 14.4725L5.99012 14.8561C6.62278 13.793 7.02283 12.6078 7.16387 11.3788L6.41876 11.2933ZM18.0331 11.2356L17.2877 11.3185C17.2909 11.3468 17.2926 11.3628 17.2945 11.3788L18.0396 11.2933L18.7847 11.2078C18.7832 11.1951 18.7818 11.1822 18.7785 11.1528L18.0331 11.2356ZM19.1425 14.5222L19.7856 14.1364C19.7704 14.111 19.7637 14.0999 19.7572 14.0889L19.1127 14.4725L18.4682 14.8561C18.4764 14.8698 18.4847 14.8837 18.4994 14.9081L19.1425 14.5222ZM18.0396 11.2933L17.2945 11.3788C17.4355 12.6078 17.8356 13.793 18.4682 14.8561L19.1127 14.4725L19.7572 14.0889C19.233 13.2081 18.9016 12.2261 18.7847 11.2078L18.0396 11.2933ZM6.1614 18V17.25C5.63526 17.25 5.2979 17.2491 5.05466 17.2246C4.80709 17.1997 4.79735 17.1603 4.8349 17.1917L4.35351 17.7668L3.87212 18.3419C4.18824 18.6066 4.57267 18.6837 4.90451 18.7171C5.24069 18.7509 5.66799 18.75 6.1614 18.75V18ZM4.73779 15.4856L4.09467 15.0998C3.84081 15.5229 3.62019 15.8888 3.47623 16.1945C3.33413 16.4962 3.20249 16.8655 3.26674 17.2727L4.00758 17.1559L4.74841 17.039C4.75605 17.0873 4.72724 17.0587 4.83326 16.8336C4.93742 16.6124 5.11021 16.3227 5.38091 15.8715L4.73779 15.4856ZM4.35351 17.7668L4.8349 17.1917C4.78855 17.1529 4.75783 17.0987 4.74841 17.039L4.00758 17.1559L3.26674 17.2727C3.33268 17.6906 3.54773 18.0704 3.87212 18.3419L4.35351 17.7668ZM18.2969 18V18.75C18.7903 18.75 19.2176 18.7509 19.5538 18.7171C19.8857 18.6837 20.2701 18.6066 20.5862 18.3419L20.1048 17.7668L19.6234 17.1917C19.661 17.1603 19.6512 17.1997 19.4037 17.2246C19.1604 17.2491 18.8231 17.25 18.2969 17.25V18ZM19.7205 15.4856L19.0774 15.8715C19.3481 16.3227 19.5209 16.6124 19.6251 16.8336C19.7311 17.0587 19.7023 17.0873 19.7099 17.039L20.4508 17.1559L21.1916 17.2727C21.2558 16.8655 21.1242 16.4962 20.9821 16.1945C20.8381 15.8888 20.6175 15.5229 20.3637 15.0998L19.7205 15.4856ZM20.1048 17.7668L20.5862 18.3419C20.9106 18.0704 21.1257 17.6906 21.1916 17.2727L20.4508 17.1559L19.7099 17.039C19.7005 17.0987 19.6698 17.1529 19.6234 17.1917L20.1048 17.7668ZM12.2292 4V4.75C14.6935 4.75 16.7638 6.60297 17.0359 9.05224L17.7813 8.96942L18.5267 8.88659C18.1702 5.67767 15.4578 3.25 12.2292 3.25V4ZM12.2292 4V3.25C9.0005 3.25 6.28815 5.67767 5.9316 8.88659L6.67701 8.96942L7.42242 9.05224C7.69457 6.60297 9.76482 4.75 12.2292 4.75V4ZM9.33139 18.4059L8.60042 18.5737C8.8029 19.4553 9.25326 20.2542 9.90264 20.8355L10.4029 20.2767L10.9031 19.7179C10.5046 19.3612 10.2017 18.8448 10.0624 18.238L9.33139 18.4059ZM10.4029 20.2767L9.90264 20.8355C10.5544 21.419 11.3715 21.75 12.2292 21.75V21V20.25C11.766 20.25 11.2992 20.0725 10.9031 19.7179L10.4029 20.2767ZM12.2292 21V21.75C13.0868 21.75 13.9039 21.419 14.5557 20.8355L14.0555 20.2767L13.5552 19.7179C13.1591 20.0725 12.6923 20.25 12.2292 20.25V21ZM14.0555 20.2767L14.5557 20.8355C15.2051 20.2542 15.6554 19.4553 15.8579 18.5737L15.1269 18.4059L14.396 18.238C14.2566 18.8448 13.9537 19.3612 13.5552 19.7179L14.0555 20.2767Z" fill="#222222"/>
</svg>
