<svg width="26" height="26" viewBox="0 0 26 26" fill="none" xmlns="http://www.w3.org/2000/svg">
<path d="M0.75 10.0833C0.75 11.969 0.75 12.9118 1.33579 13.4975C1.92157 14.0833 2.86438 14.0833 4.75 14.0833H5.97515C6.67087 14.0833 7.01873 14.0833 7.28062 14.2721C7.54251 14.4608 7.65251 14.7909 7.87252 15.4509L8.29415 16.7158C8.51416 17.3758 8.62416 17.7058 8.88605 17.8946C9.14794 18.0833 9.4958 18.0833 10.1915 18.0833H15.3085C16.0042 18.0833 16.3521 18.0833 16.614 17.8946C16.8758 17.7058 16.9858 17.3758 17.2058 16.7158L17.6275 15.4509C17.8475 14.7909 17.9575 14.4608 18.2194 14.2721C18.4813 14.0833 18.8291 14.0833 19.5249 14.0833H20.75C22.6356 14.0833 23.5784 14.0833 24.1642 13.4975C24.75 12.9118 24.75 11.969 24.75 10.0833M4.75 24.75H20.75C22.6356 24.75 23.5784 24.75 24.1642 24.1642C24.75 23.5784 24.75 22.6356 24.75 20.75V4.75C24.75 2.86438 24.75 1.92157 24.1642 1.33579C23.5784 0.75 22.6356 0.75 20.75 0.75H4.75C2.86438 0.75 1.92157 0.75 1.33579 1.33579C0.75 1.92157 0.75 2.86438 0.75 4.75V20.75C0.75 22.6356 0.75 23.5784 1.33579 24.1642C1.92157 24.75 2.86438 24.75 4.75 24.75Z" stroke="currentColor" stroke-width="1.5"/>
</svg>
