<svg width="32" height="32" viewBox="0 0 32 32" fill="none" xmlns="http://www.w3.org/2000/svg">
<path d="M12 22.6666H20M22.6667 27.9999H9.33333C7.91885 27.9999 6.56229 27.438 5.5621 26.4378C4.5619 25.4376 4 24.0811 4 22.6666V14.2773C3.99998 13.3602 4.23642 12.4586 4.68649 11.6596C5.13656 10.8606 5.78505 10.1912 6.56933 9.71592L13.236 5.67592C14.0695 5.17085 15.0254 4.90381 16 4.90381C16.9746 4.90381 17.9305 5.17085 18.764 5.67592L25.4307 9.71592C26.2148 10.1911 26.8631 10.8603 27.3132 11.6591C27.7632 12.4578 27.9998 13.3591 28 14.2759V22.6666C28 24.0811 27.4381 25.4376 26.4379 26.4378C25.4377 27.438 24.0812 27.9999 22.6667 27.9999Z" stroke="currentColor" stroke-width="1.5" stroke-linecap="round" stroke-linejoin="round"/>
</svg>
