<svg width="23" height="26" viewBox="0 0 23 26" fill="none" xmlns="http://www.w3.org/2000/svg">
<path d="M6.08333 6.08333L11.4167 6.08333M6.08333 16.75H10.0833M6.08333 11.4167L14.0833 11.4167M19.4167 11.4167V6.75C19.4167 3.92157 19.4167 2.50736 18.538 1.62868C17.6593 0.75 16.2451 0.75 13.4167 0.75H6.75C3.92157 0.75 2.50736 0.75 1.62868 1.62868C0.75 2.50736 0.75 3.92157 0.75 6.75V18.75C0.75 21.5784 0.75 22.9926 1.62868 23.8713C2.50736 24.75 3.92157 24.75 6.75 24.75H10.0833M22.0833 24.75L20.0833 22.75M20.75 20.0833C20.75 21.9243 19.2576 23.4167 17.4167 23.4167C15.5757 23.4167 14.0833 21.9243 14.0833 20.0833C14.0833 18.2424 15.5757 16.75 17.4167 16.75C19.2576 16.75 20.75 18.2424 20.75 20.0833Z" stroke="currentColor" stroke-width="1.5" stroke-linecap="round"/>
</svg>
