<svg width="21" height="21" viewBox="0 0 21 21" fill="none" xmlns="http://www.w3.org/2000/svg">
<circle cx="10.4905" cy="10.4906" r="10.4905" fill="#D1D5DB"/>
<mask id="mask0_6_79" style="mask-type:alpha" maskUnits="userSpaceOnUse" x="2" y="2" width="17" height="17">
<rect x="2.09802" y="2.09827" width="16.7848" height="16.7848" fill="#6B7280"/>
</mask>
<g mask="url(#mask0_6_79)">
<path d="M9.58121 12.589C9.58121 11.7498 9.66572 11.1233 9.83473 10.7095C10.0037 10.2957 10.3563 9.85569 10.8925 9.38945C11.3937 8.95817 11.7318 8.6114 11.9066 8.34914C12.0814 8.08688 12.1689 7.79256 12.1689 7.46619C12.1689 7.02326 12.0115 6.65901 11.6968 6.37343C11.3821 6.08786 10.9799 5.94507 10.4904 5.94507C10.0591 5.94507 9.68029 6.07911 9.35392 6.3472C9.02755 6.61529 8.79443 6.98246 8.65455 7.44871L6.97607 6.74934C7.22085 5.98004 7.6667 5.36226 8.31361 4.89602C8.96052 4.42978 9.68612 4.19666 10.4904 4.19666C11.5278 4.19666 12.3728 4.4968 13.0256 5.09709C13.6783 5.69738 14.0047 6.46959 14.0047 7.41374C14.0047 7.90329 13.8969 8.34914 13.6812 8.75127C13.4656 9.15341 13.078 9.61674 12.5185 10.1413C12.0406 10.5842 11.7463 10.9368 11.6356 11.1991C11.5249 11.4613 11.4637 11.9246 11.452 12.589H9.58121ZM10.4904 16.3656C10.1407 16.3656 9.84347 16.2432 9.5987 15.9985C9.35392 15.7537 9.23153 15.4564 9.23153 15.1068C9.23153 14.7571 9.35392 14.4598 9.5987 14.2151C9.84347 13.9703 10.1407 13.8479 10.4904 13.8479C10.8401 13.8479 11.1373 13.9703 11.3821 14.2151C11.6269 14.4598 11.7492 14.7571 11.7492 15.1068C11.7492 15.4564 11.6269 15.7537 11.3821 15.9985C11.1373 16.2432 10.8401 16.3656 10.4904 16.3656Z" fill="#6B7280"/>
</g>
</svg>
