<svg width="24" height="24" viewBox="0 0 24 24" fill="none" xmlns="http://www.w3.org/2000/svg">
<path d="M10 6.5C10.55 6.5 11 6.95 11 7.5C11 8.05 10.55 8.5 10 8.5H7C5.35 8.5 4 9.85 4 11.5C4 13.15 5.35 14.5 7 14.5H10C10.55 14.5 11 14.95 11 15.5C11 16.05 10.55 16.5 10 16.5H7C4.24 16.5 2 14.26 2 11.5C2 8.74 4.24 6.5 7 6.5H10ZM17 6.5C19.76 6.5 22 8.74 22 11.5C22 14.26 19.76 16.5 17 16.5H14C13.45 16.5 13 16.05 13 15.5C13 14.95 13.45 14.5 14 14.5H17C18.65 14.5 20 13.15 20 11.5C20 9.85 18.65 8.5 17 8.5H14C13.45 8.5 13 8.05 13 7.5C13 6.95 13.45 6.5 14 6.5H17ZM15 10.5C15.55 10.5 16 10.95 16 11.5C16 12.05 15.55 12.5 15 12.5H9C8.45 12.5 8 12.05 8 11.5C8 10.95 8.45 10.5 9 10.5H15Z" fill="black"/>
</svg>
